<svg enable-background="new 0 0 512 512" viewBox="0 0 512 512" xmlns="http://www.w3.org/2000/svg"><path d="m275.194 294.903v133.242c28.887 13.815 80.361 40.096 80.361 51.97 0 16.505-44.53 29.885-99.46 29.885s-99.46-13.38-99.46-29.885c0-11.873 51.463-38.15 80.352-51.966v-133.235c-215.919-13.387-112.724-257.531-112.724-257.531h.206c-.133.729-.206 1.462-.206 2.201 0 21.861 58.98 39.583 131.737 39.583s131.737-17.722 131.737-39.583c0-.739-.073-1.472-.206-2.201h.206s103.137 244.008-112.543 257.52z" fill="#d8d6ce"/><path d="m387.737 39.583c0 21.861-58.98 39.583-131.737 39.583s-131.737-17.721-131.737-39.583 58.981-39.583 131.737-39.583 131.737 17.722 131.737 39.583z" fill="#e8e7e2"/><path d="m372.607 52.914s84.547 219.093-116.607 219.093-116.607-219.093-116.607-219.093z" fill="#930635"/><path d="m372.607 52.914c0 17.282-52.207 31.291-116.607 31.291s-116.607-14.01-116.607-31.291 52.207-31.292 116.607-31.292 116.607 14.01 116.607 31.292z" fill="#b52d6b"/><path d="m184.917 226.039c-5.028 0-9.925-2.58-12.669-7.221-23.576-39.861-22.511-81.21-18.95-112.781.91-8.069 8.186-13.875 16.26-12.963 8.069.911 13.873 8.19 12.963 16.26-3.237 28.69-3.981 62.355 15.039 94.513 4.134 6.99 1.819 16.007-5.17 20.141-2.349 1.389-4.928 2.051-7.473 2.051z" fill="#bf4f7a"/></svg>